<svg
  width="100%" height="100%"
  class="st0"
  xmlns="http://www.w3.org/2000/svg"
  viewBox="0 0 89.39 39.2"><g id="sweet">
  <style type="text/css">
    .st0{fill:#F36566; opacity: 0.05;}
    .st1{fill:#2A221D;}
  </style>
    <path
      d="M1.81,39a.31.31,0,0,1,.2-.29c.13,0,.21,0,.29.13A6.69,6.69,0,0,0,7.8,41.6a7.3,7.3,0,0,0,1.87-.33,2.7,2.7,0,0,0,2-2.83c-.17-1.83-1.79-2.87-4.12-4.2-2.71-1.46-5.74-3.12-5.74-6.82,0-3,2.45-4.66,4.65-5.33a15.85,15.85,0,0,1,4.46-.5A8.47,8.47,0,0,1,15.7,23c1.67,1.13,2.83,3.33,1.83,5.12l0,0A3,3,0,0,1,15,29.87a3.73,3.73,0,0,1-1.34-.12,3.34,3.34,0,0,1-1.58-1.13A3.12,3.12,0,0,1,14,23.75l.08-.08a.09.09,0,0,0-.08-.08A9.61,9.61,0,0,0,11,23a4.78,4.78,0,0,0-3.29,1,1.84,1.84,0,0,0-.29,2.12c.38.95,1.67,2.12,3.79,3.41,3.12,1.79,6.57,3.87,6.57,7.78S13.29,43.1,9.09,43.1c-3.37,0-5.54-.71-7.2-2.37a.33.33,0,0,1-.08-.21Z"
      transform="translate(-1.81 -3.9)" />
    <path
      d="M18.28,21.76h3.95a3.07,3.07,0,0,1,2.92,2.12l3.28,9.73s0,0,0,.09h.09s0,0,0-.09l1.83-5.4v-.05l-2.16-6a.23.23,0,0,1,0-.25.35.35,0,0,1,.25-.12h4A3,3,0,0,1,35.46,24l2.83,9.36a.12.12,0,0,0,.09,0s.08,0,.08,0L42.29,22a.26.26,0,0,1,.25-.21h.83a.24.24,0,0,1,.21.12c0,.13.08.21,0,.25C42.79,24.5,37.34,41,36.67,42.81a.27.27,0,0,1-.25.21,2.14,2.14,0,0,1-2.12-1.54L31.14,30.79A.21.21,0,0,0,31,30.7h0s0,0,0,.09l-2.66,8c-1.34,3.75-1.25,3.79-1.38,4a.27.27,0,0,1-.25.21h0a2.06,2.06,0,0,1-2.08-1.5L18,22.13c0-.12,0-.21,0-.25A.37.37,0,0,1,18.28,21.76Z"
      transform="translate(-1.81 -3.9)" />
    <path
      d="M53.81,21.92c8.95,0,10.69,11.36-3.58,10.86-.12,3.54.25,8.91,4.91,8.91A12.24,12.24,0,0,0,60.64,40c.2,0,.29,0,.29.17V41a.19.19,0,0,1-.13.17,18.35,18.35,0,0,1-7.24,1.7c-6,0-9.82-4.49-9.82-10.32,0-5,3-10.15,9.07-10.6C53.15,22,53.48,21.92,53.81,21.92Zm-3,9.66a2.79,2.79,0,0,0,1-.25C55.1,29.87,56.31,26,55.43,24a1.52,1.52,0,0,0-1.49-1,1.63,1.63,0,0,0-1.25.62,14.63,14.63,0,0,0-2.46,7.45C50.23,31.41,50.4,31.58,50.77,31.58Z"
      transform="translate(-1.81 -3.9)" />
    <path
      d="M71.2,21.92c9,0,10.7,11.36-3.58,10.86-.12,3.54.25,8.91,4.91,8.91A12.21,12.21,0,0,0,78,40c.2,0,.29,0,.29.17V41c0,.08,0,.13-.13.17A18.31,18.31,0,0,1,71,42.89c-6,0-9.82-4.49-9.82-10.32,0-5,3-10.15,9.07-10.6C70.54,22,70.87,21.92,71.2,21.92Zm-3,9.66a2.79,2.79,0,0,0,1-.25C72.49,29.87,73.7,26,72.83,24a1.53,1.53,0,0,0-1.5-1,1.63,1.63,0,0,0-1.25.62,14.63,14.63,0,0,0-2.46,7.45C67.62,31.41,67.79,31.58,68.17,31.58Z"
      transform="translate(-1.81 -3.9)" />
    <path
      d="M80.56,21.67V16.56c0-.21.09-.29.3-.29h3a3.07,3.07,0,0,1,3.08,3.07v2.33h3.33c.21,0,.29.09.29.25v.75c0,.21-.08.29-.29.29H86.93v15.9c0,1.2.29,2,.92,2s1.37-.83,1.83-1.33l0-.08.08-.09a1.37,1.37,0,0,1,.54-.49.33.33,0,0,1,.17.08l.29.37c.5.63.54.75,0,1.42a7.08,7.08,0,0,1-5.37,2.37c-3.2,0-4.91-2.5-4.91-5.62V23H77.24c-.21,0-.3-.08-.3-.29v-.75c0-.16.09-.25.3-.25Z"
      transform="translate(-1.81 -3.9)" />
  </g>
  <g id="con">
    <path
      d="M53.05,14.44c0,2.52-1.52,5.21-4.88,5.21S43.34,17,43.34,14.44s1.52-5.2,4.87-5.2S53.05,11.93,53.05,14.44Zm-3.43-.15c0-.8-.12-4.45-1.41-4.45-1,0-1.46,2.34-1.46,4.64S47.24,19,48.15,19,49.62,16.65,49.62,14.29Z"
      transform="translate(-1.81 -3.9)" />
    <path
      d="M53.87,9.33c0-.09,0-.13.15-.13h1.76a1,1,0,0,1,1,1c0,.08,0,.12,0,.14l.08-.1a2.87,2.87,0,0,1,2.24-1,3.6,3.6,0,0,1,2.58,1.17,4.52,4.52,0,0,1,1.21,3.27V19.4c0,.09,0,.13-.14.13H61.34A1.52,1.52,0,0,1,59.82,18V12.57c0-.84-.28-2.75-1.43-2.75-.64,0-1.32.74-1.4,2.46v7.15c0,.08,0,.12-.14.12H55.39A1.52,1.52,0,0,1,53.87,18Z"
      transform="translate(-1.81 -3.9)" />
    <path
      d="M42.91,7.31c-.83-1.62-3-3.29-6.62-3.41-6.19,0-10.15,4.78-10.15,10.77a11.34,11.34,0,0,0,1.4,5.6h4.93a4.14,4.14,0,0,1,1.71.37,10.72,10.72,0,0,1-.8-2.14c-1.2-4.78,0-11,2.42-12.69a2.47,2.47,0,0,1,1.49-.5,4,4,0,0,1,2.21.84s0,0,0,.08l0,0-.08.08a3.11,3.11,0,0,0-2.41,2.79A3,3,0,0,0,39,12.26a3.89,3.89,0,0,0,1.12.21A3.24,3.24,0,0,0,43,10.85,3.37,3.37,0,0,0,42.91,7.31Z"
      transform="translate(-1.81 -3.9)" />
  </g></svg>